<svg width="1920" height="1080" viewBox="0 0 1920 1080" xmlns="http://www.w3.org/2000/svg"><rect width="1920" height="1080" fill="#00605b"/><path d="M 0,1080 C 0,1080 0,180 0,180 C 81.0230769230769,140.5179487179487 162.0461538461538,101.03589743589743 264,118 C 365.9538461538462,134.96410256410257 488.8384615384616,208.37435897435898 622,235 C 755.1615384615384,261.625641025641 898.5999999999997,241.46666666666667 1010,228 C 1121.4000000000003,214.53333333333333 1200.7615384615387,207.75897435897434 1305,201 C 1409.2384615384613,194.24102564102566 1538.353846153846,187.4974358974359 1645,184 C 1751.646153846154,180.5025641025641 1835.823076923077,180.25128205128203 1920,180 C 1920,180 1920,1080 1920,1080 Z" fill="#00bf63" opacity="0.09999999999999999"/><path d="M 0,1080 C 0,1080 0,360 0,360 C 121.85128205128203,375.33846153846156 243.70256410256405,390.6769230769231 335,400 C 426.29743589743595,409.3230769230769 487.0410256410257,412.6307692307692 583,398 C 678.9589743589743,383.3692307692308 810.1333333333332,350.79999999999995 940,334 C 1069.8666666666668,317.20000000000005 1198.4256410256412,316.1692307692308 1303,311 C 1407.5743589743588,305.8307692307692 1488.1641025641024,296.5230769230769 1587,304 C 1685.8358974358976,311.4769230769231 1802.9179487179488,335.73846153846154 1920,360 C 1920,360 1920,1080 1920,1080 Z" fill="#00bf63" opacity="0.19999999999999998"/><path d="M 0,1080 C 0,1080 0,540 0,540 C 92.05384615384614,517.8025641025641 184.10769230769228,495.60512820512827 287,507 C 389.8923076923077,518.3948717948717 503.62307692307684,563.3820512820513 604,565 C 704.3769230769232,566.6179487179487 791.4000000000001,524.8666666666667 908,498 C 1024.6,471.1333333333333 1170.776923076923,459.151282051282 1286,475 C 1401.223076923077,490.848717948718 1485.4923076923076,534.5282051282052 1586,550 C 1686.5076923076924,565.4717948717948 1803.253846153846,552.7358974358974 1920,540 C 1920,540 1920,1080 1920,1080 Z" fill="#00bf63" opacity="0.3"/><path d="M 0,1080 C 0,1080 0,720 0,720 C 74.98717948717947,710.7871794871794 149.97435897435895,701.5743589743589 265,706 C 380.02564102564105,710.4256410256411 535.0897435897436,728.4897435897435 659,740 C 782.9102564102564,751.5102564102565 875.6666666666665,756.4666666666666 972,759 C 1068.3333333333335,761.5333333333334 1168.2435897435896,761.6435897435897 1282,762 C 1395.7564102564104,762.3564102564103 1523.3589743589746,762.9589743589744 1632,756 C 1740.6410256410254,749.0410256410256 1830.3205128205127,734.5205128205127 1920,720 C 1920,720 1920,1080 1920,1080 Z" fill="#00bf63" opacity="0.39999999999999997"/><path d="M 0,1080 C 0,1080 0,900 0,900 C 83.37948717948717,905.8435897435897 166.75897435897434,911.6871794871795 272,927 C 377.24102564102566,942.3128205128205 504.34358974358975,967.0948717948717 638,941 C 771.6564102564103,914.9051282051283 911.8666666666668,837.9333333333333 1010,840 C 1108.1333333333332,842.0666666666667 1164.1897435897438,923.1717948717949 1263,932 C 1361.8102564102562,940.8282051282051 1503.3743589743588,877.3794871794872 1620,860 C 1736.6256410256412,842.6205128205128 1828.3128205128205,871.3102564102564 1920,900 C 1920,900 1920,1080 1920,1080 Z" fill="#00bf63" opacity="0.49999999999999994"/></svg>